<svg width="20.000000" height="20.000000" viewBox="0 0 20 20" fill="none" xmlns="http://www.w3.org/2000/svg" xmlns:xlink="http://www.w3.org/1999/xlink">
	<desc>
			Created with Pixso.
	</desc>
	<defs>
		<clipPath id="clip18_11660">
			<rect id="Vertical container" width="20.000000" height="20.000000" fill="white" fill-opacity="0"/>
		</clipPath>
	</defs>
	<rect id="Vertical container" width="20.000000" height="20.000000" fill="#FFFFFF" fill-opacity="0"/>
	<g clip-path="url(#clip18_11660)">
		<path id="Vector" d="M9.68 2C8.75 2 7.84 2.32 7.11 2.9C6.39 3.49 5.89 4.3 5.7 5.21L5.63 5.57C5.61 5.65 5.61 5.73 5.62 5.81C5.64 5.89 5.67 5.97 5.71 6.04C5.76 6.11 5.82 6.17 5.89 6.22C5.96 6.26 6.04 6.3 6.12 6.31C6.2 6.33 6.29 6.33 6.37 6.31C6.45 6.29 6.53 6.26 6.6 6.21C6.67 6.17 6.72 6.11 6.77 6.04C6.81 5.97 6.84 5.89 6.86 5.81L6.93 5.45C7.07 4.78 7.46 4.18 8.02 3.77C8.58 3.37 9.27 3.18 9.96 3.25C10.66 3.32 11.3 3.63 11.77 4.14C12.23 4.65 12.49 5.31 12.5 5.99C12.5 6.73 12.2 7.43 11.67 7.95C11.14 8.47 10.43 8.76 9.68 8.76L0.62 8.76C0.45 8.76 0.3 8.83 0.18 8.94C0.06 9.06 0 9.22 0 9.38C0 9.54 0.06 9.7 0.18 9.81C0.3 9.93 0.45 10 0.62 10L9.68 10C10.74 9.97 11.75 9.54 12.49 8.79C13.23 8.04 13.65 7.04 13.65 6C13.65 4.95 13.23 3.95 12.49 3.2C11.75 2.45 10.75 2.02 9.68 2ZM16.87 7.53C16.04 7.53 15.25 7.86 14.66 8.43C14.07 9.01 13.75 9.79 13.75 10.61C13.75 10.77 13.81 10.93 13.93 11.05C14.05 11.16 14.2 11.23 14.37 11.23C14.54 11.23 14.69 11.16 14.81 11.05C14.93 10.93 15 10.77 15 10.61C15 10.25 15.1 9.89 15.31 9.58C15.52 9.28 15.81 9.04 16.15 8.9C16.5 8.77 16.87 8.73 17.24 8.8C17.6 8.87 17.93 9.05 18.2 9.3C18.46 9.56 18.64 9.89 18.71 10.25C18.78 10.61 18.74 10.98 18.6 11.32C18.46 11.65 18.22 11.94 17.91 12.15C17.6 12.35 17.24 12.46 16.87 12.46L0.62 12.46C0.45 12.46 0.3 12.52 0.18 12.64C0.06 12.75 0 12.91 0 13.07C0 13.24 0.06 13.39 0.18 13.51C0.3 13.62 0.45 13.69 0.62 13.69L12.81 13.69C13.22 13.69 13.62 13.85 13.91 14.14C14.2 14.43 14.37 14.82 14.37 15.23C14.37 15.64 14.2 16.03 13.91 16.32C13.61 16.6 13.22 16.77 12.8 16.76C12.43 16.76 12.07 16.63 11.78 16.4C11.5 16.16 11.31 15.83 11.24 15.47L11.24 15.43C11.23 15.35 11.2 15.27 11.15 15.2C11.11 15.13 11.06 15.07 10.99 15.02C10.92 14.97 10.84 14.94 10.76 14.92C10.68 14.9 10.6 14.89 10.51 14.91C10.43 14.92 10.35 14.95 10.28 15C10.21 15.04 10.15 15.1 10.1 15.16C10.06 15.23 10.02 15.31 10.01 15.39C9.99 15.47 9.99 15.55 10 15.63L10.01 15.67C10.12 16.32 10.46 16.91 10.97 17.34C11.48 17.76 12.13 18 12.8 18C13.55 18 14.26 17.7 14.79 17.18C15.32 16.67 15.62 15.96 15.62 15.23C15.62 14.66 15.45 14.13 15.15 13.69L16.87 13.69C17.7 13.69 18.49 13.36 19.08 12.79C19.67 12.21 20 11.43 20 10.61C20 9.79 19.67 9.01 19.08 8.43C18.49 7.86 17.7 7.53 16.87 7.53Z" fill="#101828" fill-opacity="1.000000" fill-rule="nonzero"/>
		<path id="Vector" d="M12.84 3.6C12.73 3.46 12.62 3.33 12.49 3.2C11.75 2.45 10.75 2.02 9.68 2C9.36 2 9.04 2.03 8.74 2.11C8.14 2.25 7.59 2.52 7.11 2.9C6.8 3.15 6.54 3.44 6.32 3.76C6.06 4.14 5.87 4.55 5.75 5C5.74 5.07 5.72 5.14 5.7 5.21L5.63 5.57C5.61 5.65 5.61 5.73 5.62 5.81C5.64 5.89 5.67 5.97 5.71 6.04C5.76 6.11 5.82 6.17 5.89 6.22C5.96 6.26 6.04 6.3 6.12 6.31C6.2 6.33 6.29 6.33 6.37 6.31C6.45 6.29 6.53 6.26 6.6 6.21C6.67 6.17 6.72 6.11 6.77 6.04C6.81 5.97 6.84 5.89 6.86 5.81L6.93 5.45C6.96 5.29 7.01 5.14 7.07 5C7.26 4.51 7.59 4.09 8.02 3.77C8.02 3.77 8.03 3.77 8.03 3.76C8.5 3.42 9.07 3.24 9.65 3.23C9.66 3.23 9.67 3.23 9.69 3.23C9.74 3.23 9.8 3.24 9.86 3.24C9.89 3.24 9.93 3.24 9.96 3.25C10.66 3.32 11.3 3.63 11.77 4.14C11.8 4.18 11.83 4.21 11.86 4.25C12.14 4.58 12.33 4.97 12.43 5.39C12.47 5.58 12.49 5.79 12.5 5.99C12.5 6.23 12.46 6.47 12.4 6.69C12.33 6.96 12.22 7.22 12.07 7.46C11.96 7.63 11.82 7.8 11.67 7.95C11.53 8.09 11.39 8.21 11.23 8.31C10.99 8.46 10.73 8.58 10.45 8.66C10.41 8.67 10.38 8.68 10.34 8.69C10.32 8.69 10.29 8.7 10.27 8.7C10.08 8.74 9.88 8.76 9.68 8.76L0.62 8.76C0.45 8.76 0.3 8.83 0.18 8.94C0.06 9.06 0 9.22 0 9.38C0 9.54 0.06 9.7 0.18 9.81C0.3 9.93 0.45 10 0.62 10L9.68 10C9.75 9.99 9.82 9.99 9.89 9.98C9.93 9.98 9.98 9.98 10.02 9.97C10.03 9.97 10.04 9.97 10.04 9.97C10.18 9.95 10.33 9.93 10.46 9.9C11.23 9.73 11.94 9.35 12.49 8.79C12.52 8.76 12.56 8.72 12.59 8.69C12.92 8.32 13.19 7.91 13.37 7.46C13.51 7.08 13.61 6.69 13.64 6.29C13.64 6.19 13.65 6.09 13.65 6C13.65 5.55 13.57 5.1 13.42 4.69C13.29 4.3 13.09 3.93 12.84 3.6ZM17.33 7.57C17.18 7.54 17.03 7.53 16.87 7.53C16.04 7.53 15.25 7.86 14.66 8.43C14.58 8.52 14.5 8.6 14.43 8.69C14.39 8.74 14.34 8.8 14.3 8.86C13.94 9.37 13.75 9.98 13.75 10.61C13.75 10.71 13.77 10.81 13.82 10.9C13.85 10.95 13.88 11 13.93 11.05C14.01 11.13 14.12 11.18 14.23 11.21C14.27 11.22 14.32 11.23 14.37 11.23C14.54 11.23 14.69 11.16 14.81 11.05C14.93 10.93 15 10.77 15 10.61C15 10.25 15.1 9.89 15.31 9.58C15.38 9.48 15.47 9.38 15.56 9.29C15.73 9.13 15.93 9 16.15 8.9C16.42 8.8 16.7 8.75 16.98 8.77C17.07 8.77 17.15 8.78 17.24 8.8C17.54 8.86 17.82 8.99 18.06 9.18C18.11 9.22 18.15 9.26 18.2 9.3C18.46 9.56 18.64 9.89 18.71 10.25C18.73 10.37 18.74 10.49 18.75 10.61L18.75 10.61L18.75 10.62C18.74 10.86 18.7 11.09 18.6 11.32C18.6 11.33 18.59 11.34 18.59 11.35C18.53 11.49 18.45 11.62 18.36 11.74C18.23 11.89 18.08 12.03 17.91 12.15C17.63 12.33 17.3 12.44 16.96 12.45C16.93 12.46 16.9 12.46 16.87 12.46L0.62 12.46C0.45 12.46 0.3 12.52 0.18 12.64C0.06 12.75 0 12.91 0 13.07C0 13.24 0.06 13.39 0.18 13.51C0.3 13.62 0.45 13.69 0.62 13.69L12.81 13.69C13.15 13.69 13.47 13.8 13.74 13.99C13.8 14.04 13.86 14.09 13.91 14.14C14.13 14.35 14.27 14.62 14.33 14.91C14.34 14.94 14.35 14.97 14.35 15C14.36 15.08 14.37 15.15 14.37 15.23C14.37 15.59 14.24 15.94 14 16.21C13.97 16.25 13.94 16.28 13.91 16.32C13.61 16.6 13.22 16.77 12.8 16.76C12.43 16.76 12.07 16.63 11.78 16.4C11.5 16.16 11.31 15.83 11.24 15.47L11.24 15.43C11.23 15.36 11.2 15.29 11.17 15.23C11.17 15.22 11.16 15.21 11.15 15.2C11.11 15.13 11.06 15.07 10.99 15.02C10.92 14.97 10.85 14.94 10.77 14.92C10.77 14.92 10.77 14.92 10.76 14.92C10.76 14.92 10.76 14.92 10.76 14.92C10.72 14.91 10.68 14.9 10.64 14.9C10.6 14.9 10.56 14.9 10.51 14.91C10.45 14.92 10.39 14.94 10.34 14.97C10.32 14.97 10.3 14.98 10.28 15C10.21 15.04 10.15 15.1 10.1 15.16L10.1 15.16C10.06 15.23 10.02 15.31 10.01 15.39C9.99 15.47 9.99 15.55 10 15.63L10.01 15.67C10.12 16.32 10.46 16.91 10.97 17.34C11.02 17.38 11.08 17.42 11.13 17.46C11.61 17.81 12.2 18 12.8 18C13.41 18 13.99 17.8 14.47 17.46C14.51 17.43 14.54 17.4 14.58 17.37C14.65 17.31 14.73 17.25 14.79 17.18C14.93 17.05 15.04 16.91 15.15 16.76C15.28 16.56 15.39 16.35 15.47 16.12C15.57 15.83 15.62 15.53 15.62 15.23C15.62 15.09 15.61 14.96 15.59 14.83C15.59 14.79 15.58 14.74 15.57 14.7C15.5 14.33 15.35 13.99 15.15 13.69L16.87 13.69C17.64 13.69 18.37 13.41 18.94 12.91C18.99 12.87 19.04 12.83 19.08 12.79C19.39 12.48 19.63 12.12 19.78 11.72C19.92 11.37 20 11 20 10.61C20 9.79 19.67 9.01 19.08 8.43C18.89 8.24 18.67 8.08 18.43 7.95C18.16 7.79 17.87 7.68 17.56 7.61C17.49 7.59 17.41 7.58 17.33 7.57Z" fill="#101828" fill-opacity="1.000000" fill-rule="evenodd"/>
	</g>
</svg>
