<svg width="17.000000" height="17.000000" viewBox="0 0 17 17" fill="none" xmlns="http://www.w3.org/2000/svg" xmlns:xlink="http://www.w3.org/1999/xlink">
	<desc>
			Created with Pixso.
	</desc>
	<defs/>
	<path id="Vector" d="M8 15.5C3.85 15.5 0.5 12.14 0.5 8C0.5 3.85 3.85 0.5 8 0.5C12.14 0.5 15.5 3.85 15.5 8C15.5 12.14 12.14 15.5 8 15.5Z" stroke="#101828" stroke-opacity="1.000000" stroke-width="1.500000"/>
	<path id="Vector" d="M3.41 8C3.41 5.46 5.46 3.41 8 3.41" stroke="#101828" stroke-opacity="1.000000" stroke-width="1.500000" stroke-linecap="round"/>
	<path id="Vector" d="M8 10.08C6.84 10.08 5.91 9.15 5.91 7.99C5.91 6.84 6.84 5.91 8 5.91C9.15 5.91 10.08 6.84 10.08 7.99C10.08 9.15 9.15 10.08 8 10.08Z" stroke="#101828" stroke-opacity="1.000000" stroke-width="1.500000"/>
</svg>
