<svg width="20.000000" height="20.000000" viewBox="0 0 20 20" fill="none" xmlns="http://www.w3.org/2000/svg" xmlns:xlink="http://www.w3.org/1999/xlink">
	<desc>
			Created with Pixso.
	</desc>
	<defs>
		<clipPath id="clip11_7884">
			<rect id="Vertical container" width="20.000000" height="20.000000" fill="white" fill-opacity="0"/>
		</clipPath>
	</defs>
	<rect id="Vertical container" width="20.000000" height="20.000000" fill="#FFFFFF" fill-opacity="0"/>
	<g clip-path="url(#clip11_7884)">
		<path id="Vector" d="M16.47 6.02L16.48 6.01L13.38 2.91L12.5 3.79L14.25 5.55C13.47 5.85 12.91 6.6 12.91 7.5C12.91 7.77 12.97 8.04 13.07 8.29C13.18 8.55 13.33 8.77 13.52 8.97C13.91 9.36 14.44 9.58 15 9.58C15.3 9.58 15.57 9.51 15.83 9.4L15.83 15.41C15.83 15.63 15.74 15.84 15.58 16C15.43 16.16 15.22 16.25 15 16.25C14.77 16.25 14.56 16.16 14.41 16C14.25 15.84 14.16 15.63 14.16 15.41L14.16 11.66C14.16 11.22 13.99 10.8 13.67 10.48C13.36 10.17 12.94 10 12.5 10L11.66 10L11.66 4.16C11.66 3.72 11.49 3.3 11.17 2.98C10.86 2.67 10.44 2.5 10 2.5L5 2.5C4.55 2.5 4.13 2.67 3.82 2.98C3.5 3.3 3.33 3.72 3.33 4.16L3.33 17.5L11.66 17.5L11.66 11.25L12.91 11.25L12.91 15.41C12.91 15.96 13.13 16.49 13.52 16.88C13.91 17.28 14.44 17.5 15 17.5C15.27 17.5 15.54 17.44 15.79 17.34C16.05 17.23 16.27 17.08 16.47 16.88C16.66 16.69 16.82 16.46 16.92 16.21C17.02 15.96 17.08 15.69 17.08 15.41L17.08 7.5C17.08 6.92 16.85 6.4 16.47 6.02ZM10 11.25L10 15.83L5 15.83L5 10L10 10L10 11.25ZM10 8.33L5 8.33L5 4.16L10 4.16L10 8.33ZM15 8.33C14.77 8.33 14.56 8.24 14.41 8.08C14.25 7.93 14.16 7.72 14.16 7.5C14.16 7.27 14.25 7.06 14.41 6.91C14.56 6.75 14.77 6.66 15 6.66C15.22 6.66 15.43 6.75 15.58 6.91C15.74 7.06 15.83 7.27 15.83 7.5C15.83 7.72 15.74 7.93 15.58 8.08C15.43 8.24 15.22 8.33 15 8.33Z" fill="#101828" fill-opacity="1.000000" fill-rule="nonzero"/>
	</g>
</svg>
