<svg width="40.000000" height="28.000000" viewBox="0 0 40 28" fill="none" xmlns="http://www.w3.org/2000/svg" xmlns:xlink="http://www.w3.org/1999/xlink">
	<desc>
			Created with Pixso.
	</desc>
	<defs/>
	<path id="Vector" d="M2.28 1.07L13.13 1.07C13.23 1.07 13.31 1.03 13.38 0.97L14.42 -0.05C14.72 -0.34 15.13 -0.5 15.56 -0.5L32.02 -0.5C32.79 -0.5 33.5 -0.13 33.92 0.49L35.9 3.38C36.18 3.79 36.2 4.31 35.97 4.75C35.73 5.18 35.27 5.45 34.76 5.45L26.28 5.45L26.28 6.29L30.62 6.29C31.77 6.29 32.81 6.95 33.26 7.99L35.81 13.81L38.04 14.68C39.23 15.14 40 16.25 40 17.5L40 22.89C40 23.69 39.32 24.35 38.5 24.35L35.91 24.35C35.61 26.13 34.01 27.5 32.1 27.5C30.19 27.5 28.6 26.13 28.29 24.35L14.12 24.35C13.81 26.13 12.22 27.5 10.31 27.5C8.4 27.5 6.81 26.13 6.5 24.35L1.32 24.35C0.59 24.35 0 23.76 0 23.05L0 3.3C0 2.07 1.02 1.07 2.28 1.07ZM32.1 26.26C33.53 26.26 34.7 25.13 34.7 23.73C34.7 22.33 33.53 21.2 32.1 21.2C30.67 21.2 29.5 22.33 29.5 23.73C29.5 25.13 30.67 26.26 32.1 26.26ZM26.28 23.12L28.29 23.12C28.3 23.08 28.31 23.05 28.31 23.02C28.32 23 28.32 22.98 28.32 22.96C28.33 22.91 28.35 22.87 28.36 22.82C28.36 22.81 28.36 22.8 28.36 22.79C28.38 22.73 28.4 22.67 28.41 22.62C28.42 22.6 28.43 22.59 28.43 22.57C28.44 22.53 28.46 22.49 28.47 22.45C28.48 22.43 28.49 22.41 28.5 22.39C28.51 22.36 28.52 22.32 28.54 22.29C28.55 22.27 28.56 22.24 28.57 22.22C28.58 22.19 28.59 22.16 28.61 22.13C28.62 22.11 28.63 22.08 28.64 22.06C28.66 22.03 28.67 22 28.69 21.97C28.7 21.95 28.71 21.93 28.73 21.91C28.74 21.88 28.76 21.85 28.78 21.82C28.79 21.8 28.8 21.78 28.82 21.76C28.84 21.73 28.85 21.7 28.87 21.67C28.89 21.65 28.9 21.63 28.91 21.61C28.93 21.58 28.96 21.55 28.98 21.52C28.99 21.5 29 21.49 29.02 21.47C29.05 21.43 29.08 21.39 29.11 21.35C29.12 21.35 29.12 21.34 29.13 21.34C29.16 21.29 29.2 21.25 29.24 21.21C29.25 21.19 29.27 21.18 29.28 21.17C29.31 21.14 29.33 21.11 29.36 21.08C29.38 21.07 29.4 21.05 29.41 21.03C29.44 21.01 29.46 20.99 29.49 20.96C29.51 20.95 29.53 20.93 29.54 20.91C29.57 20.89 29.6 20.87 29.62 20.85L29.68 20.8C29.71 20.78 29.73 20.76 29.76 20.74C29.78 20.72 29.8 20.71 29.82 20.7C29.85 20.68 29.88 20.66 29.91 20.64C29.93 20.62 29.95 20.61 29.97 20.6C30 20.58 30.03 20.56 30.06 20.54C30.08 20.53 30.1 20.51 30.12 20.5C30.15 20.48 30.19 20.46 30.22 20.45C30.24 20.44 30.25 20.43 30.27 20.42C30.32 20.39 30.37 20.37 30.42 20.34C30.42 20.34 30.43 20.34 30.43 20.34C30.48 20.31 30.54 20.29 30.59 20.27C30.61 20.26 30.63 20.25 30.65 20.24C30.68 20.23 30.72 20.21 30.76 20.2C30.78 20.19 30.8 20.19 30.83 20.18C30.86 20.17 30.89 20.15 30.93 20.14C30.95 20.14 30.98 20.13 31 20.12C31.04 20.11 31.07 20.1 31.1 20.09C31.13 20.09 31.15 20.08 31.18 20.08C31.21 20.07 31.25 20.06 31.28 20.05C31.31 20.05 31.33 20.04 31.36 20.04C31.39 20.03 31.43 20.02 31.47 20.02C31.49 20.01 31.52 20.01 31.54 20.01C31.58 20 31.62 20 31.65 19.99C31.68 19.99 31.7 19.99 31.73 19.98C31.77 19.98 31.81 19.98 31.85 19.97C31.87 19.97 31.89 19.97 31.91 19.97C31.97 19.97 32.04 19.97 32.1 19.97C32.16 19.97 32.23 19.97 32.29 19.97C32.31 19.97 32.33 19.97 32.35 19.97C32.39 19.98 32.44 19.98 32.48 19.98C32.5 19.99 32.53 19.99 32.55 19.99C32.59 20 32.62 20 32.66 20.01C32.69 20.01 32.71 20.01 32.74 20.02C32.77 20.02 32.81 20.03 32.84 20.04C32.87 20.04 32.89 20.05 32.92 20.05C32.95 20.06 32.99 20.07 33.02 20.08C33.05 20.08 33.07 20.09 33.1 20.09C33.13 20.1 33.17 20.11 33.2 20.12C33.22 20.13 33.25 20.14 33.27 20.14C33.31 20.15 33.34 20.17 33.38 20.18C33.4 20.19 33.42 20.19 33.44 20.2C33.48 20.21 33.52 20.23 33.56 20.24C33.57 20.25 33.59 20.26 33.61 20.27C33.66 20.29 33.72 20.31 33.77 20.34C33.78 20.34 33.78 20.34 33.78 20.34C33.83 20.37 33.88 20.39 33.93 20.42C33.95 20.43 33.96 20.44 33.98 20.45C34.02 20.46 34.05 20.48 34.08 20.5C34.1 20.51 34.12 20.53 34.14 20.54C34.17 20.56 34.2 20.58 34.23 20.6C34.25 20.61 34.28 20.62 34.3 20.64C34.32 20.66 34.35 20.68 34.38 20.7C34.4 20.71 34.42 20.72 34.44 20.74C34.47 20.76 34.49 20.78 34.52 20.8L34.58 20.85C34.61 20.87 34.63 20.89 34.66 20.91C34.68 20.93 34.69 20.95 34.71 20.96C34.74 20.99 34.76 21.01 34.79 21.03C34.81 21.05 34.82 21.07 34.84 21.08C34.87 21.11 34.9 21.14 34.92 21.17C34.94 21.18 34.95 21.19 34.96 21.21C35 21.25 35.04 21.29 35.08 21.34C35.08 21.34 35.09 21.35 35.09 21.35C35.12 21.39 35.15 21.43 35.19 21.47C35.2 21.49 35.21 21.5 35.22 21.52C35.24 21.55 35.27 21.58 35.29 21.61C35.3 21.63 35.31 21.65 35.33 21.67C35.35 21.7 35.37 21.73 35.39 21.76C35.4 21.78 35.41 21.8 35.42 21.82C35.44 21.85 35.46 21.88 35.48 21.91C35.49 21.93 35.5 21.95 35.51 21.97C35.53 22 35.54 22.03 35.56 22.06C35.57 22.08 35.58 22.11 35.59 22.13C35.61 22.16 35.62 22.19 35.64 22.22C35.65 22.24 35.66 22.27 35.66 22.29C35.68 22.32 35.69 22.36 35.71 22.39C35.71 22.41 35.72 22.43 35.73 22.45C35.74 22.49 35.76 22.53 35.77 22.57C35.78 22.59 35.78 22.6 35.79 22.62C35.81 22.67 35.82 22.73 35.84 22.79C35.84 22.8 35.84 22.81 35.84 22.82C35.86 22.87 35.87 22.91 35.88 22.96C35.88 22.98 35.89 23 35.89 23.02C35.9 23.05 35.9 23.08 35.91 23.12L38.5 23.12C38.63 23.12 38.73 23.01 38.73 22.89L38.73 20.31L37.75 20.31L37.75 19.08L38.73 19.08L38.73 17.5C38.73 16.75 38.28 16.09 37.57 15.82L35.21 14.9L26.28 14.9L26.28 23.12ZM26.28 13.67L34.37 13.67L32.1 8.47C31.85 7.89 31.27 7.52 30.62 7.52L26.28 7.52L26.28 13.67ZM10.31 26.26C11.74 26.26 12.91 25.13 12.91 23.73C12.91 22.33 11.74 21.2 10.31 21.2C10.27 21.2 10.22 21.2 10.18 21.2C8.98 21.26 8 22.11 7.77 23.22C7.76 23.26 7.75 23.3 7.74 23.35C7.73 23.43 7.72 23.51 7.72 23.6C7.71 23.64 7.71 23.69 7.71 23.73C7.71 25.13 8.88 26.26 10.31 26.26ZM1.26 19.08L2.24 19.08L2.24 20.31L1.26 20.31L1.26 23.05C1.26 23.09 1.29 23.12 1.32 23.12L6.5 23.12C6.51 23.08 6.51 23.05 6.52 23.02C6.52 23 6.53 22.98 6.53 22.96C6.54 22.91 6.55 22.87 6.57 22.82C6.57 22.81 6.57 22.8 6.57 22.79C6.59 22.73 6.61 22.68 6.62 22.62C6.63 22.6 6.64 22.58 6.64 22.57C6.65 22.53 6.67 22.49 6.68 22.45C6.69 22.43 6.7 22.41 6.71 22.39C6.72 22.36 6.73 22.32 6.75 22.29C6.76 22.27 6.77 22.24 6.78 22.22C6.79 22.19 6.8 22.16 6.82 22.13C6.83 22.11 6.84 22.08 6.85 22.06C6.87 22.03 6.88 22 6.9 21.97C6.91 21.95 6.92 21.93 6.94 21.91C6.95 21.88 6.97 21.85 6.99 21.82C7 21.8 7.01 21.78 7.03 21.76C7.04 21.73 7.06 21.7 7.08 21.67C7.1 21.65 7.11 21.63 7.12 21.61C7.14 21.58 7.17 21.55 7.19 21.52C7.2 21.5 7.21 21.49 7.23 21.47C7.26 21.43 7.29 21.39 7.32 21.36C7.32 21.35 7.33 21.34 7.33 21.34C7.37 21.29 7.41 21.25 7.45 21.21C7.46 21.19 7.48 21.18 7.49 21.17C7.52 21.14 7.54 21.11 7.57 21.08C7.59 21.07 7.6 21.05 7.62 21.03C7.65 21.01 7.67 20.99 7.7 20.96C7.72 20.95 7.74 20.93 7.75 20.91C7.78 20.89 7.81 20.87 7.83 20.85C7.85 20.83 7.87 20.82 7.89 20.8C7.92 20.78 7.94 20.76 7.97 20.74C7.99 20.72 8.01 20.71 8.03 20.7C8.06 20.68 8.09 20.66 8.12 20.64C8.14 20.62 8.16 20.61 8.18 20.6C8.21 20.58 8.24 20.56 8.27 20.54C8.29 20.53 8.31 20.51 8.33 20.5C8.36 20.48 8.39 20.46 8.43 20.45C8.45 20.44 8.46 20.43 8.48 20.42C8.53 20.39 8.58 20.37 8.63 20.34C8.63 20.34 8.64 20.34 8.64 20.34C8.69 20.31 8.75 20.29 8.8 20.27C8.82 20.26 8.84 20.25 8.86 20.24C8.89 20.23 8.93 20.21 8.97 20.2C8.99 20.19 9.01 20.19 9.04 20.18C9.07 20.17 9.1 20.15 9.14 20.14C9.16 20.14 9.19 20.13 9.21 20.12C9.25 20.11 9.28 20.1 9.31 20.09C9.34 20.09 9.36 20.08 9.39 20.08C9.42 20.07 9.46 20.06 9.49 20.05C9.52 20.05 9.54 20.04 9.57 20.04C9.6 20.03 9.64 20.02 9.67 20.02C9.7 20.01 9.72 20.01 9.75 20.01C9.79 20 9.82 20 9.86 19.99C9.89 19.99 9.91 19.99 9.93 19.98C9.98 19.98 10.02 19.98 10.06 19.97C10.08 19.97 10.1 19.97 10.12 19.97C10.18 19.97 10.25 19.97 10.31 19.97C10.37 19.97 10.44 19.97 10.5 19.97C10.52 19.97 10.54 19.97 10.56 19.97C10.6 19.98 10.64 19.98 10.69 19.98C10.71 19.99 10.73 19.99 10.76 19.99C10.8 20 10.83 20 10.87 20.01C10.9 20.01 10.92 20.01 10.95 20.02C10.98 20.02 11.02 20.03 11.05 20.04C11.08 20.04 11.1 20.05 11.13 20.05C11.16 20.06 11.2 20.07 11.23 20.08C11.26 20.08 11.28 20.09 11.31 20.09C11.34 20.1 11.38 20.11 11.41 20.12C11.43 20.13 11.46 20.14 11.48 20.14C11.52 20.15 11.55 20.17 11.59 20.18C11.61 20.19 11.63 20.19 11.65 20.2C11.69 20.21 11.73 20.23 11.77 20.24C11.78 20.25 11.8 20.26 11.82 20.27C11.87 20.29 11.93 20.31 11.98 20.34C11.99 20.34 11.99 20.34 11.99 20.34C12.04 20.37 12.09 20.39 12.14 20.42C12.16 20.43 12.17 20.44 12.19 20.45C12.23 20.46 12.26 20.48 12.29 20.5C12.31 20.51 12.33 20.53 12.35 20.54C12.38 20.56 12.41 20.58 12.44 20.6C12.46 20.61 12.48 20.62 12.51 20.64C12.53 20.66 12.56 20.68 12.59 20.7C12.61 20.71 12.63 20.72 12.65 20.74C12.68 20.76 12.7 20.78 12.73 20.8C12.75 20.82 12.77 20.83 12.79 20.85C12.81 20.87 12.84 20.89 12.87 20.91C12.88 20.93 12.9 20.95 12.92 20.96C12.95 20.99 12.97 21.01 13 21.03C13.02 21.05 13.03 21.07 13.05 21.08C13.08 21.11 13.11 21.14 13.13 21.17C13.15 21.18 13.16 21.19 13.17 21.21C13.21 21.25 13.25 21.29 13.29 21.34C13.29 21.34 13.3 21.35 13.3 21.35C13.33 21.39 13.36 21.43 13.39 21.47C13.41 21.49 13.42 21.5 13.43 21.52C13.45 21.55 13.48 21.58 13.5 21.61C13.51 21.63 13.52 21.65 13.54 21.67C13.56 21.7 13.58 21.73 13.59 21.76C13.61 21.78 13.62 21.8 13.63 21.82C13.65 21.85 13.67 21.88 13.68 21.91C13.7 21.93 13.71 21.95 13.72 21.97C13.74 22 13.75 22.03 13.77 22.06C13.78 22.08 13.79 22.11 13.8 22.13C13.82 22.16 13.83 22.19 13.84 22.22C13.85 22.24 13.86 22.27 13.87 22.29C13.89 22.32 13.9 22.36 13.92 22.39C13.92 22.41 13.93 22.43 13.94 22.45C13.95 22.49 13.97 22.53 13.98 22.57C13.99 22.59 13.99 22.6 14 22.62C14.01 22.67 14.03 22.73 14.05 22.79C14.05 22.8 14.05 22.81 14.05 22.82C14.07 22.86 14.08 22.91 14.09 22.96C14.09 22.98 14.1 23 14.1 23.02C14.11 23.05 14.11 23.08 14.12 23.12L25.01 23.12L25.01 4.83C25.01 4.49 25.3 4.22 25.64 4.22L34.76 4.22C34.78 4.22 34.82 4.22 34.85 4.16C34.88 4.11 34.86 4.07 34.85 4.06L32.88 1.17C32.68 0.89 32.37 0.73 32.02 0.73L15.56 0.73C15.46 0.73 15.38 0.76 15.31 0.82L14.27 1.84C13.97 2.14 13.56 2.3 13.13 2.3L2.28 2.3C1.71 2.3 1.26 2.75 1.26 3.3L1.26 19.08Z" fill="#101828" fill-opacity="1.000000" fill-rule="nonzero"/>
	<path id="Vector" d="M17.6 5.79L21.58 5.79C22.39 5.79 23.05 6.43 23.05 7.22L23.05 20.38C23.05 20.72 22.76 21 22.42 21L16.77 21C16.42 21 16.14 20.72 16.14 20.38L16.14 7.22C16.14 6.43 16.79 5.79 17.6 5.79ZM17.4 19.77L21.78 19.77L21.78 12.53L17.4 12.53L17.4 19.77ZM17.4 11.3L21.78 11.3L21.78 7.22C21.78 7.11 21.69 7.02 21.58 7.02L17.6 7.02C17.49 7.02 17.4 7.11 17.4 7.22L17.4 11.3Z" fill="#101828" fill-opacity="1.000000" fill-rule="nonzero"/>
</svg>
