<svg width="24.000000" height="24.000000" viewBox="0 0 24 24" xmlns="http://www.w3.org/2000/svg" xmlns:xlink="http://www.w3.org/1999/xlink">
	<desc>
			Created with Pixso.
	</desc>
	<defs>
		<clipPath id="clip58_198">
			<rect id="heart" width="24.000000" height="24.000000" transform="translate(-0.500000 0.000000)" fill="white" fill-opacity="0"/>
		</clipPath>
	</defs>
	<rect id="heart" width="24.000000" height="24.000000" transform="translate(-0.500000 0.000000)" fill="#FFFFFF" fill-opacity="0"/>
	<g clip-path="url(#clip58_198)">
		<path id="Vector" d="M18.55 3.41C17.88 3.14 17.17 2.99 16.45 2.99C15.72 2.99 15.01 3.14 14.34 3.41C13.67 3.69 13.07 4.09 12.56 4.61L11.5 5.67L10.44 4.61C9.4 3.57 8 2.99 6.55 2.99C5.09 2.99 3.69 3.57 2.66 4.61C1.62 5.64 1.04 7.04 1.04 8.5C1.04 9.95 1.62 11.35 2.66 12.39L3.72 13.45L11.5 21.23L19.28 13.45L20.34 12.39C20.85 11.87 21.25 11.27 21.53 10.6C21.8 9.93 21.95 9.22 21.95 8.5C21.95 7.77 21.8 7.06 21.53 6.39C21.25 5.72 20.85 5.12 20.34 4.61C19.82 4.09 19.22 3.69 18.55 3.41Z" stroke="#101828" stroke-opacity="1.000000" stroke-width="2.300000" stroke-linejoin="round"/>
	</g>
</svg>
