<svg width="16.000000" height="16.000000" viewBox="0 0 16 16" fill="none" xmlns="http://www.w3.org/2000/svg" xmlns:xlink="http://www.w3.org/1999/xlink">
	<desc>
			Created with Pixso.
	</desc>
	<defs>
		<clipPath id="clip1_2567">
			<rect id="icon/star" width="16.000000" height="16.000000" fill="white" fill-opacity="0"/>
		</clipPath>
	</defs>
	<g clip-path="url(#clip1_2567)">
		<path id="Rating" d="M7.55 0.83L5.66 4.41C5.59 4.55 5.46 4.64 5.31 4.67L1.32 5.36C0.92 5.43 0.77 5.91 1.05 6.2L3.87 9.1C3.98 9.22 4.03 9.37 4 9.52L3.43 13.53C3.37 13.93 3.78 14.23 4.14 14.05L7.77 12.26C7.91 12.2 8.08 12.2 8.22 12.26L11.85 14.05C12.21 14.23 12.62 13.93 12.56 13.53L11.99 9.52C11.96 9.37 12.01 9.22 12.12 9.1L14.94 6.2C15.22 5.91 15.07 5.43 14.67 5.36L10.68 4.67C10.53 4.64 10.4 4.55 10.33 4.41L8.44 0.83C8.25 0.48 7.74 0.48 7.55 0.83Z" fill="#FFC531" fill-opacity="1.000000" fill-rule="evenodd"/>
		<path id="Rating" d="M5.66 4.41C5.59 4.55 5.46 4.64 5.31 4.67L1.32 5.36C0.92 5.43 0.77 5.91 1.05 6.2L3.87 9.1C3.98 9.22 4.03 9.37 4 9.52L3.43 13.53C3.37 13.93 3.78 14.23 4.14 14.05L7.77 12.26C7.91 12.2 8.08 12.2 8.22 12.26L11.85 14.05C12.21 14.23 12.62 13.93 12.56 13.53L11.99 9.52C11.96 9.37 12.01 9.22 12.12 9.1L14.94 6.2C15.22 5.91 15.07 5.43 14.67 5.36L10.68 4.67C10.53 4.64 10.4 4.55 10.33 4.41L8.44 0.83C8.25 0.48 7.74 0.48 7.55 0.83L5.66 4.41ZM6.73 4.97C6.48 5.44 6.03 5.76 5.51 5.85L2.83 6.32L4.73 8.27C5.1 8.65 5.27 9.17 5.19 9.69L4.8 12.39L7.24 11.19C7.72 10.95 8.27 10.95 8.75 11.19L11.19 12.39L10.8 9.69C10.72 9.17 10.89 8.65 11.26 8.27L13.16 6.32L10.48 5.85C9.96 5.76 9.51 5.44 9.26 4.97L8 2.57L6.73 4.97Z" fill="#FFC531" fill-opacity="1.000000" fill-rule="evenodd"/>
	</g>
</svg>
