<svg width="40.000000" height="28.000000" viewBox="0 0 40 28" fill="none" xmlns="http://www.w3.org/2000/svg" xmlns:xlink="http://www.w3.org/1999/xlink">
	<desc>
			Created with Pixso.
	</desc>
	<defs/>
	<path id="Vector" d="M2.28 1.57L13.13 1.57C13.23 1.57 13.31 1.53 13.38 1.47L14.42 0.45C14.72 0.16 15.13 0 15.56 0L32.02 0C32.79 0 33.5 0.37 33.92 0.99L35.9 3.88C36.18 4.29 36.2 4.81 35.97 5.25C35.73 5.68 35.27 5.95 34.76 5.95L26.28 5.95L26.28 6.79L30.62 6.79C31.77 6.79 32.81 7.45 33.26 8.49L35.81 14.31L38.04 15.18C39.23 15.64 40 16.75 40 18L40 23.39C40 24.19 39.32 24.85 38.5 24.85L35.91 24.85C35.61 26.63 34.01 28 32.1 28C30.19 28 28.6 26.63 28.29 24.85L14.12 24.85C13.81 26.63 12.22 28 10.31 28C8.4 28 6.81 26.63 6.5 24.85L1.32 24.85C0.59 24.85 0 24.26 0 23.55L0 3.8C0 2.57 1.02 1.57 2.28 1.57ZM32.1 26.76C33.53 26.76 34.7 25.63 34.7 24.23C34.7 22.83 33.53 21.7 32.1 21.7C30.67 21.7 29.5 22.83 29.5 24.23C29.5 25.63 30.67 26.76 32.1 26.76ZM26.28 23.62L28.29 23.62C28.3 23.58 28.31 23.55 28.31 23.52C28.32 23.5 28.32 23.48 28.32 23.46C28.33 23.41 28.35 23.37 28.36 23.32C28.36 23.31 28.36 23.3 28.36 23.29C28.38 23.23 28.4 23.17 28.41 23.12C28.42 23.1 28.43 23.09 28.43 23.07C28.44 23.03 28.46 22.99 28.47 22.95C28.48 22.93 28.49 22.91 28.5 22.89C28.51 22.86 28.52 22.82 28.54 22.79C28.55 22.77 28.56 22.74 28.57 22.72C28.58 22.69 28.59 22.66 28.61 22.63C28.62 22.61 28.63 22.58 28.64 22.56C28.66 22.53 28.67 22.5 28.69 22.47C28.7 22.45 28.71 22.43 28.73 22.41C28.74 22.38 28.76 22.35 28.78 22.32C28.79 22.3 28.8 22.28 28.82 22.26C28.84 22.23 28.85 22.2 28.87 22.17C28.89 22.15 28.9 22.13 28.91 22.11C28.93 22.08 28.96 22.05 28.98 22.02C28.99 22 29 21.99 29.02 21.97C29.05 21.93 29.08 21.89 29.11 21.85C29.12 21.85 29.12 21.84 29.13 21.84C29.16 21.79 29.2 21.75 29.24 21.71C29.25 21.69 29.27 21.68 29.28 21.67C29.31 21.64 29.33 21.61 29.36 21.58C29.38 21.57 29.4 21.55 29.41 21.53C29.44 21.51 29.46 21.49 29.49 21.46C29.51 21.45 29.53 21.43 29.54 21.41C29.57 21.39 29.6 21.37 29.62 21.35L29.68 21.3C29.71 21.28 29.73 21.26 29.76 21.24C29.78 21.22 29.8 21.21 29.82 21.2C29.85 21.18 29.88 21.16 29.91 21.14C29.93 21.12 29.95 21.11 29.97 21.1C30 21.08 30.03 21.06 30.06 21.04C30.08 21.03 30.1 21.01 30.12 21C30.15 20.98 30.19 20.96 30.22 20.95C30.24 20.94 30.25 20.93 30.27 20.92C30.32 20.89 30.37 20.87 30.42 20.84C30.42 20.84 30.43 20.84 30.43 20.84C30.48 20.81 30.54 20.79 30.59 20.77C30.61 20.76 30.63 20.75 30.65 20.74C30.68 20.73 30.72 20.72 30.76 20.7C30.78 20.69 30.8 20.69 30.83 20.68C30.86 20.67 30.89 20.65 30.93 20.64C30.95 20.64 30.98 20.63 31 20.62C31.04 20.61 31.07 20.6 31.1 20.59C31.13 20.59 31.15 20.58 31.18 20.58C31.21 20.57 31.25 20.56 31.28 20.55C31.31 20.55 31.33 20.54 31.36 20.54C31.39 20.53 31.43 20.52 31.47 20.52C31.49 20.51 31.52 20.51 31.54 20.51C31.58 20.5 31.62 20.5 31.65 20.49C31.68 20.49 31.7 20.49 31.73 20.48C31.77 20.48 31.81 20.48 31.85 20.47C31.87 20.47 31.89 20.47 31.91 20.47C31.97 20.47 32.04 20.47 32.1 20.47C32.16 20.47 32.23 20.47 32.29 20.47C32.31 20.47 32.33 20.47 32.35 20.47C32.39 20.48 32.44 20.48 32.48 20.48C32.5 20.49 32.53 20.49 32.55 20.49C32.59 20.5 32.62 20.5 32.66 20.51C32.69 20.51 32.71 20.51 32.74 20.52C32.77 20.52 32.81 20.53 32.84 20.54C32.87 20.54 32.89 20.55 32.92 20.55C32.95 20.56 32.99 20.57 33.02 20.58C33.05 20.58 33.07 20.59 33.1 20.59C33.13 20.6 33.17 20.61 33.2 20.62C33.22 20.63 33.25 20.64 33.27 20.64C33.31 20.65 33.34 20.67 33.38 20.68C33.4 20.69 33.42 20.69 33.44 20.7C33.48 20.72 33.52 20.73 33.56 20.74C33.57 20.75 33.59 20.76 33.61 20.77C33.66 20.79 33.72 20.81 33.77 20.84C33.78 20.84 33.78 20.84 33.78 20.84C33.83 20.87 33.88 20.89 33.93 20.92C33.95 20.93 33.96 20.94 33.98 20.95C34.02 20.96 34.05 20.98 34.08 21C34.1 21.01 34.12 21.03 34.14 21.04C34.17 21.06 34.2 21.08 34.23 21.1C34.25 21.11 34.28 21.12 34.3 21.14C34.32 21.16 34.35 21.18 34.38 21.2C34.4 21.21 34.42 21.22 34.44 21.24C34.47 21.26 34.49 21.28 34.52 21.3L34.58 21.35C34.61 21.37 34.63 21.39 34.66 21.41C34.68 21.43 34.69 21.45 34.71 21.46C34.74 21.49 34.76 21.51 34.79 21.53C34.81 21.55 34.82 21.57 34.84 21.58C34.87 21.61 34.9 21.64 34.92 21.67C34.94 21.68 34.95 21.69 34.96 21.71C35 21.75 35.04 21.79 35.08 21.84C35.08 21.84 35.09 21.85 35.09 21.85C35.12 21.89 35.15 21.93 35.19 21.97C35.2 21.99 35.21 22 35.22 22.02C35.24 22.05 35.27 22.08 35.29 22.11C35.3 22.13 35.31 22.15 35.33 22.17C35.35 22.2 35.37 22.23 35.39 22.26C35.4 22.28 35.41 22.3 35.42 22.32C35.44 22.35 35.46 22.38 35.48 22.41C35.49 22.43 35.5 22.45 35.51 22.47C35.53 22.5 35.54 22.53 35.56 22.56C35.57 22.58 35.58 22.61 35.59 22.63C35.61 22.66 35.62 22.69 35.64 22.72C35.65 22.74 35.66 22.77 35.66 22.79C35.68 22.82 35.69 22.86 35.71 22.89C35.71 22.91 35.72 22.93 35.73 22.95C35.74 22.99 35.76 23.03 35.77 23.07C35.78 23.09 35.78 23.1 35.79 23.12C35.81 23.17 35.82 23.23 35.84 23.29C35.84 23.3 35.84 23.31 35.84 23.32C35.86 23.37 35.87 23.41 35.88 23.46C35.88 23.48 35.89 23.5 35.89 23.52C35.9 23.55 35.9 23.58 35.91 23.62L38.5 23.62C38.63 23.62 38.73 23.51 38.73 23.39L38.73 20.81L37.75 20.81L37.75 19.58L38.73 19.58L38.73 18C38.73 17.25 38.28 16.59 37.57 16.32L35.21 15.4L26.28 15.4L26.28 23.62ZM26.28 14.17L34.37 14.17L32.1 8.97C31.85 8.39 31.27 8.02 30.62 8.02L26.28 8.02L26.28 14.17ZM10.31 26.76C11.74 26.76 12.91 25.63 12.91 24.23C12.91 22.83 11.74 21.7 10.31 21.7C10.27 21.7 10.22 21.7 10.18 21.7C8.98 21.76 8 22.61 7.77 23.72C7.76 23.76 7.75 23.8 7.74 23.85C7.73 23.93 7.72 24.01 7.72 24.1C7.71 24.14 7.71 24.19 7.71 24.23C7.71 25.63 8.88 26.76 10.31 26.76ZM1.26 19.58L2.24 19.58L2.24 20.81L1.26 20.81L1.26 23.55C1.26 23.59 1.29 23.62 1.32 23.62L6.5 23.62C6.51 23.58 6.51 23.55 6.52 23.52C6.52 23.5 6.53 23.48 6.53 23.46C6.54 23.41 6.55 23.37 6.57 23.32C6.57 23.31 6.57 23.3 6.57 23.29C6.59 23.23 6.61 23.18 6.62 23.12C6.63 23.1 6.64 23.08 6.64 23.07C6.65 23.03 6.67 22.99 6.68 22.95C6.69 22.93 6.7 22.91 6.71 22.89C6.72 22.86 6.73 22.82 6.75 22.79C6.76 22.77 6.77 22.74 6.78 22.72C6.79 22.69 6.8 22.66 6.82 22.63C6.83 22.61 6.84 22.58 6.85 22.56C6.87 22.53 6.88 22.5 6.9 22.47C6.91 22.45 6.92 22.43 6.94 22.41C6.95 22.38 6.97 22.35 6.99 22.32C7 22.3 7.01 22.28 7.03 22.26C7.04 22.23 7.06 22.2 7.08 22.17C7.1 22.15 7.11 22.13 7.12 22.11C7.14 22.08 7.17 22.05 7.19 22.02C7.2 22 7.21 21.99 7.23 21.97C7.26 21.93 7.29 21.89 7.32 21.86C7.32 21.85 7.33 21.84 7.33 21.84C7.37 21.79 7.41 21.75 7.45 21.71C7.46 21.69 7.48 21.68 7.49 21.67C7.52 21.64 7.54 21.61 7.57 21.58C7.59 21.57 7.6 21.55 7.62 21.53C7.65 21.51 7.67 21.49 7.7 21.46C7.72 21.45 7.74 21.43 7.75 21.41C7.78 21.39 7.81 21.37 7.83 21.35C7.85 21.33 7.87 21.32 7.89 21.3C7.92 21.28 7.94 21.26 7.97 21.24C7.99 21.22 8.01 21.21 8.03 21.2C8.06 21.18 8.09 21.16 8.12 21.14C8.14 21.12 8.16 21.11 8.18 21.1C8.21 21.08 8.24 21.06 8.27 21.04C8.29 21.03 8.31 21.01 8.33 21C8.36 20.98 8.39 20.96 8.43 20.95C8.45 20.94 8.46 20.93 8.48 20.92C8.53 20.89 8.58 20.87 8.63 20.84C8.63 20.84 8.64 20.84 8.64 20.84C8.69 20.81 8.75 20.79 8.8 20.77C8.82 20.76 8.84 20.75 8.86 20.74C8.89 20.73 8.93 20.72 8.97 20.7C8.99 20.69 9.01 20.69 9.04 20.68C9.07 20.67 9.1 20.65 9.14 20.64C9.16 20.64 9.19 20.63 9.21 20.62C9.25 20.61 9.28 20.6 9.31 20.59C9.34 20.59 9.36 20.58 9.39 20.58C9.42 20.57 9.46 20.56 9.49 20.55C9.52 20.55 9.54 20.54 9.57 20.54C9.6 20.53 9.64 20.52 9.67 20.52C9.7 20.51 9.72 20.51 9.75 20.51C9.79 20.5 9.82 20.5 9.86 20.49C9.89 20.49 9.91 20.49 9.93 20.48C9.98 20.48 10.02 20.48 10.06 20.47C10.08 20.47 10.1 20.47 10.12 20.47C10.18 20.47 10.25 20.47 10.31 20.47C10.37 20.47 10.44 20.47 10.5 20.47C10.52 20.47 10.54 20.47 10.56 20.47C10.6 20.48 10.64 20.48 10.69 20.48C10.71 20.49 10.73 20.49 10.76 20.49C10.8 20.5 10.83 20.5 10.87 20.51C10.9 20.51 10.92 20.51 10.95 20.52C10.98 20.52 11.02 20.53 11.05 20.54C11.08 20.54 11.1 20.55 11.13 20.55C11.16 20.56 11.2 20.57 11.23 20.58C11.26 20.58 11.28 20.59 11.31 20.59C11.34 20.6 11.38 20.61 11.41 20.62C11.43 20.63 11.46 20.64 11.48 20.64C11.52 20.65 11.55 20.67 11.59 20.68C11.61 20.69 11.63 20.69 11.65 20.7C11.69 20.72 11.73 20.73 11.77 20.74C11.78 20.75 11.8 20.76 11.82 20.77C11.87 20.79 11.93 20.81 11.98 20.84C11.99 20.84 11.99 20.84 11.99 20.84C12.04 20.87 12.09 20.89 12.14 20.92C12.16 20.93 12.17 20.94 12.19 20.95C12.23 20.96 12.26 20.98 12.29 21C12.31 21.01 12.33 21.03 12.35 21.04C12.38 21.06 12.41 21.08 12.44 21.1C12.46 21.11 12.48 21.12 12.51 21.14C12.53 21.16 12.56 21.18 12.59 21.2C12.61 21.21 12.63 21.22 12.65 21.24C12.68 21.26 12.7 21.28 12.73 21.3C12.75 21.32 12.77 21.33 12.79 21.35C12.81 21.37 12.84 21.39 12.87 21.41C12.88 21.43 12.9 21.45 12.92 21.46C12.95 21.49 12.97 21.51 13 21.53C13.02 21.55 13.03 21.57 13.05 21.58C13.08 21.61 13.11 21.64 13.13 21.67C13.15 21.68 13.16 21.69 13.17 21.71C13.21 21.75 13.25 21.79 13.29 21.84C13.29 21.84 13.3 21.85 13.3 21.85C13.33 21.89 13.36 21.93 13.39 21.97C13.41 21.99 13.42 22 13.43 22.02C13.45 22.05 13.48 22.08 13.5 22.11C13.51 22.13 13.52 22.15 13.54 22.17C13.56 22.2 13.58 22.23 13.59 22.26C13.61 22.28 13.62 22.3 13.63 22.32C13.65 22.35 13.67 22.38 13.68 22.41C13.7 22.43 13.71 22.45 13.72 22.47C13.74 22.5 13.75 22.53 13.77 22.56C13.78 22.58 13.79 22.61 13.8 22.63C13.82 22.66 13.83 22.69 13.84 22.72C13.85 22.74 13.86 22.77 13.87 22.79C13.89 22.82 13.9 22.86 13.92 22.89C13.92 22.91 13.93 22.93 13.94 22.95C13.95 22.99 13.97 23.03 13.98 23.07C13.99 23.09 13.99 23.1 14 23.12C14.01 23.17 14.03 23.23 14.05 23.29C14.05 23.3 14.05 23.31 14.05 23.32C14.07 23.36 14.08 23.41 14.09 23.46C14.09 23.48 14.1 23.5 14.1 23.52C14.11 23.55 14.11 23.58 14.12 23.62L25.01 23.62L25.01 5.33C25.01 4.99 25.3 4.72 25.64 4.72L34.76 4.72C34.78 4.72 34.82 4.72 34.85 4.66C34.88 4.61 34.86 4.57 34.85 4.56L32.88 1.67C32.68 1.39 32.37 1.23 32.02 1.23L15.56 1.23C15.46 1.23 15.38 1.26 15.31 1.32L14.27 2.34C13.97 2.64 13.56 2.8 13.13 2.8L2.28 2.8C1.71 2.8 1.26 3.25 1.26 3.8L1.26 19.58Z" fill="#101828" fill-opacity="1.000000" fill-rule="nonzero"/>
	<path id="Vector" d="M4.84 6.29L12.55 6.29C13.44 6.29 14.17 7 14.17 7.87L14.17 11.46C14.17 12.33 13.44 13.04 12.55 13.04L4.84 13.04C3.95 13.04 3.22 12.33 3.22 11.46L3.22 7.87C3.22 7 3.95 6.29 4.84 6.29ZM4.48 11.46C4.48 11.65 4.64 11.8 4.84 11.8L12.55 11.8C12.75 11.8 12.91 11.65 12.91 11.46L12.91 7.87C12.91 7.68 12.75 7.52 12.55 7.52L4.84 7.52C4.64 7.52 4.48 7.68 4.48 7.87L4.48 11.46Z" fill="#101828" fill-opacity="1.000000" fill-rule="nonzero"/>
</svg>
