<svg width="29.000000" height="24.000000" viewBox="0 0 29 24" fill="none" xmlns="http://www.w3.org/2000/svg" xmlns:xlink="http://www.w3.org/1999/xlink">
	<desc>
			Created with Pixso.
	</desc>
	<defs/>
	<path id="Vector" d="M13.55 -0.71C12.2 -0.7 10.89 -0.22 9.84 0.65C8.8 1.53 8.08 2.75 7.82 4.11L7.71 4.65C7.69 4.77 7.68 4.9 7.7 5.02C7.72 5.14 7.77 5.26 7.83 5.36C7.9 5.47 7.98 5.56 8.08 5.63C8.18 5.7 8.29 5.75 8.41 5.77C8.53 5.79 8.65 5.79 8.77 5.77C8.89 5.74 9 5.69 9.1 5.62C9.2 5.55 9.28 5.46 9.35 5.36C9.41 5.25 9.46 5.14 9.48 5.01L9.58 4.48C9.78 3.47 10.34 2.57 11.15 1.96C11.95 1.35 12.95 1.07 13.95 1.17C14.95 1.28 15.87 1.75 16.54 2.51C17.22 3.27 17.59 4.27 17.6 5.29C17.6 6.39 17.17 7.45 16.41 8.23C15.65 9.01 14.62 9.45 13.55 9.45L0.5 9.45C0.26 9.45 0.03 9.55 -0.14 9.72C-0.31 9.89 -0.4 10.13 -0.4 10.37C-0.4 10.62 -0.31 10.85 -0.14 11.02C0.03 11.2 0.26 11.3 0.5 11.3L13.55 11.3C15.07 11.26 16.52 10.61 17.59 9.49C18.66 8.37 19.25 6.86 19.25 5.3C19.25 3.73 18.66 2.23 17.59 1.11C16.53 -0.02 15.08 -0.67 13.55 -0.71ZM23.9 7.6C22.7 7.6 21.56 8.09 20.71 8.95C19.87 9.82 19.4 10.99 19.4 12.22C19.4 12.46 19.49 12.7 19.66 12.87C19.83 13.04 20.06 13.14 20.29 13.14C20.53 13.14 20.76 13.04 20.93 12.87C21.1 12.7 21.2 12.46 21.2 12.22C21.2 11.67 21.35 11.14 21.65 10.68C21.95 10.22 22.37 9.87 22.86 9.66C23.36 9.45 23.9 9.4 24.42 9.5C24.95 9.61 25.43 9.87 25.8 10.26C26.18 10.65 26.44 11.14 26.54 11.68C26.65 12.22 26.59 12.77 26.39 13.28C26.19 13.78 25.84 14.22 25.4 14.52C24.95 14.82 24.43 14.99 23.9 14.99L0.5 14.99C0.26 14.99 0.03 15.08 -0.14 15.26C-0.31 15.43 -0.4 15.67 -0.4 15.91C-0.4 16.16 -0.31 16.39 -0.14 16.56C0.03 16.74 0.26 16.83 0.5 16.83L18.04 16.83C18.64 16.83 19.21 17.08 19.63 17.51C20.06 17.95 20.29 18.53 20.29 19.15C20.29 19.76 20.05 20.34 19.63 20.78C19.21 21.21 18.63 21.45 18.04 21.45C17.5 21.45 16.98 21.25 16.57 20.9C16.16 20.54 15.88 20.05 15.79 19.51L15.78 19.45C15.77 19.33 15.73 19.21 15.66 19.1C15.6 19 15.52 18.91 15.42 18.83C15.33 18.76 15.22 18.71 15.1 18.68C14.98 18.65 14.86 18.64 14.74 18.66C14.62 18.68 14.51 18.73 14.41 18.8C14.31 18.86 14.22 18.95 14.15 19.05C14.08 19.15 14.03 19.27 14.01 19.39C13.99 19.51 13.98 19.63 14.01 19.75L14.02 19.81C14.18 20.78 14.67 21.67 15.4 22.31C16.14 22.95 17.07 23.3 18.04 23.3C19.11 23.3 20.14 22.86 20.9 22.08C21.66 21.3 22.09 20.24 22.1 19.14C22.1 18.29 21.84 17.49 21.41 16.83L23.9 16.83C25.09 16.83 26.23 16.35 27.08 15.48C27.92 14.62 28.4 13.44 28.4 12.22C28.4 10.99 27.92 9.82 27.08 8.95C26.23 8.09 25.09 7.6 23.9 7.6Z" fill="#101828" fill-opacity="1.000000" fill-rule="nonzero"/>
	<path id="Vector" d="M4.5 9.45L0.5 9.45C0.26 9.45 0.03 9.55 -0.14 9.72C-0.23 9.81 -0.3 9.92 -0.35 10.04C-0.38 10.15 -0.4 10.26 -0.4 10.37C-0.4 10.62 -0.31 10.85 -0.14 11.02C0.03 11.2 0.26 11.3 0.5 11.3L13.55 11.3C13.85 11.29 14.15 11.26 14.44 11.2C15.13 11.07 15.79 10.82 16.39 10.46C16.49 10.39 16.59 10.33 16.69 10.26C16.81 10.18 16.93 10.08 17.05 9.99C17.24 9.83 17.42 9.67 17.59 9.49C17.83 9.24 18.04 8.97 18.23 8.68C18.76 7.9 19.09 6.99 19.21 6.04C19.24 5.8 19.25 5.55 19.25 5.3C19.25 4.82 19.2 4.35 19.09 3.89C18.85 2.85 18.33 1.89 17.59 1.11C16.53 -0.02 15.08 -0.67 13.55 -0.71C12.2 -0.7 10.89 -0.22 9.84 0.65C9.75 0.73 9.65 0.82 9.56 0.9C8.67 1.76 8.06 2.88 7.82 4.11L7.75 4.45L7.71 4.65C7.69 4.77 7.68 4.9 7.7 5.02C7.72 5.14 7.77 5.26 7.83 5.36C7.9 5.47 7.98 5.56 8.08 5.63C8.18 5.7 8.29 5.75 8.41 5.77C8.53 5.79 8.65 5.79 8.77 5.77C8.89 5.74 9 5.69 9.1 5.62C9.2 5.55 9.28 5.46 9.35 5.36C9.41 5.25 9.46 5.14 9.48 5.01L9.58 4.48C9.59 4.47 9.59 4.46 9.59 4.45C9.79 3.45 10.35 2.57 11.15 1.96C11.21 1.92 11.27 1.87 11.33 1.83C11.98 1.4 12.73 1.16 13.5 1.15C13.52 1.15 13.53 1.15 13.55 1.15C13.68 1.15 13.82 1.16 13.95 1.17C14.95 1.28 15.87 1.75 16.54 2.51C17.16 3.21 17.53 4.09 17.59 5.03C17.59 5.11 17.59 5.2 17.6 5.29C17.6 6.39 17.17 7.45 16.41 8.23C15.96 8.69 15.42 9.03 14.84 9.23C14.42 9.37 13.99 9.45 13.55 9.45L4.5 9.45ZM22.24 7.93C21.98 8.03 21.74 8.16 21.5 8.31C21.22 8.49 20.95 8.71 20.71 8.95C20.41 9.26 20.16 9.61 19.96 9.99C19.65 10.55 19.46 11.18 19.41 11.83C19.41 11.87 19.4 11.91 19.4 11.95C19.4 12.04 19.4 12.13 19.4 12.22C19.4 12.24 19.4 12.26 19.4 12.28C19.41 12.5 19.5 12.71 19.66 12.87C19.83 13.04 20.06 13.14 20.29 13.14C20.53 13.14 20.76 13.04 20.93 12.87C21.03 12.77 21.1 12.65 21.15 12.51C21.18 12.42 21.2 12.32 21.2 12.22C21.2 12.09 21.2 11.96 21.22 11.83C21.28 11.42 21.42 11.03 21.65 10.68C21.83 10.41 22.04 10.18 22.3 9.99C22.47 9.86 22.66 9.75 22.86 9.66C23.02 9.59 23.19 9.54 23.36 9.5C23.39 9.5 23.43 9.49 23.47 9.48C23.78 9.43 24.11 9.44 24.42 9.5C24.95 9.61 25.43 9.87 25.8 10.26C26.18 10.65 26.44 11.14 26.54 11.68C26.65 12.22 26.59 12.77 26.39 13.28C26.28 13.56 26.12 13.82 25.92 14.04C25.86 14.12 25.78 14.2 25.71 14.27C25.61 14.36 25.51 14.44 25.4 14.52C25.06 14.75 24.68 14.9 24.29 14.96C24.2 14.97 24.11 14.98 24.02 14.98C23.98 14.99 23.94 14.99 23.9 14.99L0.5 14.99C0.26 14.99 0.03 15.08 -0.14 15.26C-0.31 15.43 -0.4 15.67 -0.4 15.91C-0.4 16.02 -0.38 16.14 -0.35 16.24C-0.3 16.36 -0.23 16.47 -0.14 16.56C0.03 16.74 0.26 16.83 0.5 16.83L18.04 16.83C18.64 16.83 19.21 17.08 19.63 17.51C19.81 17.7 19.96 17.91 20.07 18.14C20.15 18.32 20.22 18.52 20.25 18.72C20.26 18.77 20.27 18.81 20.27 18.86C20.29 18.95 20.29 19.05 20.29 19.15C20.29 19.44 20.24 19.72 20.13 19.99C20.02 20.28 19.85 20.55 19.63 20.78C19.33 21.08 18.96 21.29 18.57 21.39C18.39 21.43 18.22 21.45 18.04 21.45C17.5 21.45 16.98 21.25 16.57 20.9C16.28 20.65 16.06 20.34 15.92 19.99C15.86 19.83 15.82 19.67 15.79 19.51L15.78 19.45C15.77 19.33 15.73 19.21 15.66 19.1C15.6 19 15.52 18.91 15.42 18.83C15.39 18.81 15.35 18.78 15.32 18.76C15.25 18.72 15.18 18.7 15.1 18.68C14.98 18.65 14.86 18.64 14.74 18.66C14.62 18.68 14.51 18.73 14.41 18.8C14.31 18.86 14.22 18.95 14.15 19.05C14.08 19.15 14.03 19.27 14.01 19.39C13.99 19.51 13.98 19.63 14.01 19.75L14.02 19.81C14.03 19.87 14.04 19.93 14.05 19.99C14.19 20.67 14.5 21.31 14.94 21.83C15.08 22 15.24 22.16 15.4 22.31C15.84 22.69 16.35 22.97 16.9 23.13C17.27 23.24 17.65 23.3 18.04 23.3C19.11 23.3 20.14 22.86 20.9 22.08C21.09 21.88 21.27 21.67 21.41 21.44C21.7 21 21.9 20.51 22.01 19.99C22.07 19.71 22.09 19.43 22.1 19.14C22.1 18.72 22.03 18.31 21.92 17.93C21.8 17.54 21.63 17.17 21.41 16.83L23.9 16.83C23.93 16.83 23.97 16.83 24 16.83C24.31 16.82 24.61 16.79 24.9 16.72C25.49 16.58 26.05 16.32 26.54 15.95C26.73 15.81 26.91 15.65 27.08 15.48C27.92 14.62 28.4 13.44 28.4 12.22C28.4 10.99 27.92 9.82 27.08 8.95C26.27 8.12 25.18 7.64 24.03 7.6C23.99 7.6 23.94 7.6 23.9 7.6C23.32 7.6 22.76 7.72 22.24 7.93Z" fill="#101828" fill-opacity="1.000000" fill-rule="evenodd"/>
</svg>
