<svg width="20.000000" height="20.000000" viewBox="0 0 20 20" fill="none" xmlns="http://www.w3.org/2000/svg" xmlns:xlink="http://www.w3.org/1999/xlink">
	<desc>
			Created with Pixso.
	</desc>
	<defs>
		<clipPath id="clip11_7795">
			<rect id="Users" width="20.000000" height="20.000000" fill="white" fill-opacity="0"/>
		</clipPath>
	</defs>
	<rect id="Users" width="20.000000" height="20.000000" fill="#FFFFFF" fill-opacity="0"/>
	<g clip-path="url(#clip11_7795)">
		<path id="Vector" d="M5.66 15.08L2.91 15.08C2.75 15.08 2.66 15 2.58 14.91C2.5 14.83 2.41 14.66 2.5 14.5C3 13.08 4.25 12.25 5.66 12.25C7.41 12.25 8.83 10.75 8.83 9C8.83 7.25 7.41 5.58 5.66 5.58C3.91 5.58 2.5 7.08 2.5 8.91C2.5 9.75 2.83 10.58 3.33 11.16C2.25 11.75 1.41 12.66 0.91 13.91C0.75 14.5 0.83 15.25 1.25 15.83C1.66 16.41 2.25 16.75 2.91 16.75L5.66 16.75C6.16 16.75 6.5 16.41 6.5 15.91C6.5 15.41 6.16 15.08 5.66 15.08ZM4.16 8.91C4.16 8 4.83 7.33 5.66 7.33C6.5 7.33 7.16 8.08 7.16 8.91C7.16 9.83 6.5 10.5 5.66 10.5C4.83 10.5 4.16 9.75 4.16 8.91Z" fill="#101828" fill-opacity="1.000000" fill-rule="nonzero"/>
		<path id="Vector" d="M19.08 13.41C18.5 11.83 17.33 10.66 16 10C16.75 9.33 17.16 8.33 17.16 7.16C17.16 5 15.5 3.25 13.5 3.25C11.5 3.25 9.83 5 9.83 7.16C9.83 8.25 10.25 9.25 11 10C9.66 10.66 8.5 11.83 7.91 13.41C7.5 14.16 7.66 15 8.08 15.66C8.5 16.33 9.25 16.66 10 16.66L16.91 16.66C17.66 16.66 18.41 16.25 18.83 15.66C19.33 15 19.41 14.16 19.08 13.41ZM11.41 7.25C11.41 6 12.33 5 13.41 5C14.5 5 15.41 6 15.41 7.25C15.41 8.5 14.5 9.5 13.41 9.5C12.33 9.5 11.41 8.41 11.41 7.25ZM17.41 14.75C17.33 14.83 17.16 15.08 16.91 15.08L10 15.08C9.66 15.08 9.5 14.83 9.5 14.75C9.41 14.66 9.25 14.33 9.41 14C10.08 12.25 11.75 11.08 13.5 11.08C15.25 11.08 16.91 12.25 17.58 14C17.66 14.33 17.5 14.66 17.41 14.75Z" fill="#101828" fill-opacity="1.000000" fill-rule="nonzero"/>
	</g>
</svg>
