<svg width="20.000000" height="20.000000" viewBox="0 0 20 20" fill="none" xmlns="http://www.w3.org/2000/svg" xmlns:xlink="http://www.w3.org/1999/xlink">
	<desc>
			Created with Pixso.
	</desc>
	<defs>
		<clipPath id="clip45_422">
			<rect id="streamline:hotel-air-conditioner" width="20.000000" height="20.000000" fill="white" fill-opacity="0"/>
		</clipPath>
	</defs>
	<rect id="streamline:hotel-air-conditioner" width="20.000000" height="20.000000" fill="#FFFFFF" fill-opacity="0"/>
	<g clip-path="url(#clip45_422)">
		<path id="Vector" d="M2.14 0.71C1.76 0.71 1.4 0.86 1.13 1.13C0.86 1.4 0.71 1.76 0.71 2.14L0.71 9.28C0.71 9.66 0.86 10.02 1.13 10.29C1.4 10.56 1.76 10.71 2.14 10.71L17.85 10.71C18.23 10.71 18.59 10.56 18.86 10.29C19.13 10.02 19.28 9.66 19.28 9.28L19.28 2.14C19.28 1.76 19.13 1.4 18.86 1.13C18.59 0.86 18.23 0.71 17.85 0.71L2.14 0.71Z" stroke="#101828" stroke-opacity="1.000000" stroke-width="1.500000" stroke-linejoin="round"/>
		<path id="Vector" d="M15.71 10.71L15.71 7.85C15.71 7.47 15.56 7.11 15.29 6.84C15.02 6.57 14.66 6.42 14.28 6.42L5.71 6.42C5.33 6.42 4.97 6.57 4.7 6.84C4.43 7.11 4.28 7.47 4.28 7.85L4.28 10.71M3.57 17.85L3.71 17.85C4.24 17.85 4.75 17.64 5.12 17.27C5.5 16.89 5.71 16.38 5.71 15.85L5.71 14.28M16.42 17.85L16.28 17.85C15.75 17.85 15.24 17.64 14.87 17.27C14.49 16.89 14.28 16.38 14.28 15.85L14.28 14.28M10 19.28L10 14.28" stroke="#101828" stroke-opacity="1.000000" stroke-width="1.500000" stroke-linejoin="round"/>
	</g>
</svg>
