<svg width="25.000000" height="26.000000" viewBox="0 0 25 26" fill="none" xmlns="http://www.w3.org/2000/svg" xmlns:xlink="http://www.w3.org/1999/xlink">
	<desc>
			Created with Pixso.
	</desc>
	<defs/>
	<path id="Vector" d="M19.16 24.5L20.5 24.5C21.2 24.5 21.88 24.21 22.38 23.71C22.88 23.21 23.16 22.54 23.16 21.83C23.16 21.12 22.88 20.44 22.38 19.94C21.88 19.44 21.2 19.16 20.5 19.16L19.16 19.16L19.16 24.5ZM19.16 11.16L21.16 11.16C21.69 11.16 22.2 10.95 22.58 10.58C22.95 10.2 23.16 9.69 23.16 9.16C23.16 8.63 22.95 8.12 22.58 7.75C22.2 7.37 21.69 7.16 21.16 7.16L19.16 7.16L19.16 13.83M1.28 5.05C1.78 5.55 2.45 5.83 3.16 5.83C3.87 5.83 4.55 5.55 5.05 5.05C5.55 4.55 5.83 3.87 5.83 3.16C5.83 2.45 5.55 1.78 5.05 1.28C4.55 0.78 3.87 0.5 3.16 0.5C2.45 0.5 1.78 0.78 1.28 1.28C0.78 1.78 0.5 2.45 0.5 3.16C0.5 3.87 0.78 4.55 1.28 5.05Z" stroke="#101828" stroke-opacity="1.000000" stroke-width="1.800000" stroke-linejoin="round" stroke-linecap="round"/>
	<path id="Vector" d="M3.16 5.83L3.16 9.83C3.16 10.18 3.3 10.52 3.55 10.77C3.8 11.02 4.14 11.16 4.5 11.16L8.5 11.16L13.83 11.16M8.5 11.16L8.5 20.5C8.5 20.85 8.64 21.19 8.89 21.44C9.14 21.69 9.47 21.83 9.83 21.83L13.83 21.83" stroke="#101828" stroke-opacity="1.000000" stroke-width="1.800000" stroke-linejoin="round"/>
</svg>
