<svg width="18.000000" height="20.000000" viewBox="0 0 18 20" fill="none" xmlns="http://www.w3.org/2000/svg" xmlns:xlink="http://www.w3.org/1999/xlink">
	<desc>
			Created with Pixso.
	</desc>
	<defs>
		<clipPath id="clip46_657">
			<rect id="map-pin" width="18.000000" height="20.000000" fill="white" fill-opacity="0"/>
		</clipPath>
	</defs>
	<rect id="map-pin" width="18.000000" height="20.000000" fill="#FFFFFF" fill-opacity="0"/>
	<g clip-path="url(#clip46_657)">
		<path id="Vector" d="M9 19.16C9 19.16 1.5 14.16 1.5 8.33C1.5 6.34 2.29 4.43 3.69 3.03C5.1 1.62 7.01 0.83 9 0.83C10.98 0.83 12.89 1.62 14.3 3.03C15.7 4.43 16.5 6.34 16.5 8.33C16.5 14.16 9 19.16 9 19.16Z" stroke="#101828" stroke-opacity="1.000000" stroke-width="1.500000" stroke-linejoin="round"/>
		<path id="Vector" d="M9 10.83C7.61 10.83 6.5 9.71 6.5 8.33C6.5 6.95 7.61 5.83 9 5.83C10.38 5.83 11.5 6.95 11.5 8.33C11.5 9.71 10.38 10.83 9 10.83Z" stroke="#101828" stroke-opacity="1.000000" stroke-width="1.500000" stroke-linejoin="round"/>
	</g>
</svg>
