<svg width="20.000000" height="20.000000" viewBox="0 0 20 20" fill="none" xmlns="http://www.w3.org/2000/svg" xmlns:xlink="http://www.w3.org/1999/xlink">
	<desc>
			Created with Pixso.
	</desc>
	<defs>
		<clipPath id="clip45_592">
			<rect id="arcticons:freezer" width="20.000000" height="20.000000" fill="white" fill-opacity="0"/>
		</clipPath>
	</defs>
	<rect id="arcticons:freezer" width="20.000000" height="20.000000" fill="#FFFFFF" fill-opacity="0"/>
	<g clip-path="url(#clip45_592)">
		<path id="Vector" d="M14.62 1.87C15.31 1.87 15.87 2.43 15.87 3.12L15.87 15.86C15.87 16.55 15.31 17.11 14.62 17.11L5.37 17.11C4.68 17.11 4.12 16.55 4.12 15.86L4.12 3.12C4.12 2.43 4.68 1.87 5.37 1.87L14.62 1.87Z" stroke="#101828" stroke-opacity="1.000000" stroke-width="1.300000" stroke-linejoin="round"/>
		<path id="Vector" d="M4.12 8.2L15.87 8.2M6.44 6.6L6.44 4.07M6.44 12.15L6.44 9.62M5.26 17.11L5.26 17.55C5.26 17.7 5.32 17.84 5.43 17.95C5.53 18.06 5.68 18.12 5.83 18.12L6.86 18.12C7.01 18.12 7.15 18.06 7.26 17.95C7.37 17.85 7.43 17.7 7.43 17.55L7.43 17.11M12.56 17.11L12.56 17.55C12.56 17.7 12.62 17.85 12.72 17.95C12.83 18.06 12.98 18.12 13.13 18.12L14.16 18.12C14.31 18.12 14.46 18.06 14.57 17.95C14.67 17.85 14.73 17.7 14.73 17.55L14.73 17.11" stroke="#101828" stroke-opacity="1.000000" stroke-width="1.300000" stroke-linejoin="round"/>
	</g>
</svg>
