<svg width="23.000000" height="21.000000" viewBox="0 0 23 21" fill="none" xmlns="http://www.w3.org/2000/svg" xmlns:xlink="http://www.w3.org/1999/xlink">
	<desc>
			Created with Pixso.
	</desc>
	<defs/>
	<path id="Vector" d="M18.05 1.41C17.38 1.14 16.67 0.99 15.95 0.99C15.22 0.99 14.51 1.14 13.84 1.41C13.17 1.69 12.57 2.09 12.06 2.61L11 3.67L9.94 2.61C8.9 1.57 7.5 0.99 6.05 0.99C4.59 0.99 3.19 1.57 2.16 2.61C1.12 3.64 0.54 5.04 0.54 6.5C0.54 7.95 1.12 9.35 2.16 10.39L3.22 11.45L11 19.23L18.78 11.45L19.84 10.39C20.35 9.87 20.75 9.27 21.03 8.6C21.3 7.93 21.45 7.22 21.45 6.5C21.45 5.77 21.3 5.06 21.03 4.39C20.75 3.72 20.35 3.12 19.84 2.61C19.32 2.09 18.72 1.69 18.05 1.41Z" stroke-opacity="1.000000" stroke-width="2.300000" stroke-linejoin="round"/>
</svg>
