<svg width="20.000000" height="20.000000" viewBox="0 0 20 20" fill="none" xmlns="http://www.w3.org/2000/svg" xmlns:xlink="http://www.w3.org/1999/xlink">
	<desc>
			Created with Pixso.
	</desc>
	<defs>
		<clipPath id="clip45_552">
			<rect id="icon-park-outline:hand-painted-plate" width="20.000000" height="20.000000" fill="white" fill-opacity="0"/>
		</clipPath>
	</defs>
	<rect id="icon-park-outline:hand-painted-plate" width="20.000000" height="20.000000" fill="#FFFFFF" fill-opacity="0"/>
	<g clip-path="url(#clip45_552)">
		<path id="Vector" d="M17.5 4.16C17.72 4.16 17.93 4.25 18.08 4.41C18.24 4.56 18.33 4.77 18.33 5L18.33 15.83C18.33 16.05 18.24 16.26 18.08 16.42C17.93 16.57 17.72 16.66 17.5 16.66L7.5 16.66L2.5 16.66C2.27 16.66 2.06 16.57 1.91 16.42C1.75 16.26 1.66 16.05 1.66 15.83L1.66 5C1.66 4.77 1.75 4.56 1.91 4.41C2.06 4.25 2.27 4.16 2.5 4.16L7.5 4.16L17.5 4.16ZM7.5 4.16L7.5 16.66" stroke="#101828" stroke-opacity="1.000000" stroke-width="1.500000"/>
		<path id="Vector" d="M4.58 7.08L4.58 8.75M15.41 6.66L10.41 13.75" stroke="#101828" stroke-opacity="1.000000" stroke-width="1.500000" stroke-linejoin="round"/>
		<path id="Vector" d="M4.58 10.41C5.04 10.41 5.41 10.78 5.41 11.25C5.41 11.71 5.04 12.08 4.58 12.08C4.12 12.08 3.75 11.71 3.75 11.25C3.75 10.78 4.12 10.41 4.58 10.41Z" fill="#101828" fill-opacity="1.000000" fill-rule="evenodd"/>
		<path id="Vector" d="M4.58 12.91C5.04 12.91 5.41 13.28 5.41 13.75C5.41 14.21 5.04 14.58 4.58 14.58C4.12 14.58 3.75 14.21 3.75 13.75C3.75 13.28 4.12 12.91 4.58 12.91Z" fill="#101828" fill-opacity="1.000000" fill-rule="evenodd"/>
	</g>
</svg>
