<svg width="32.000000" height="32.000000" viewBox="0 0 32 32" fill="none" xmlns="http://www.w3.org/2000/svg" xmlns:xlink="http://www.w3.org/1999/xlink">
	<desc>
			Created with Pixso.
	</desc>
	<defs>
		<clipPath id="clip3_2969">
			<rect id="Container" width="32.000000" height="32.000000" transform="translate(-0.500000 -0.500000)" fill="white" fill-opacity="0"/>
		</clipPath>
	</defs>
	<rect id="Container" width="32.000000" height="32.000000" transform="translate(-0.500000 -0.500000)" fill="#FFFFFF" fill-opacity="0"/>
	<g clip-path="url(#clip3_2969)">
		<path id="Vector" d="M24.83 19.5L18.16 19.5C18.13 14.59 18.41 9.62 24.83 3.5L24.83 19.5L24.83 27.5L23.5 27.5L23.5 23.5M10.16 4.83L10.16 27.5M6.16 4.83L6.16 8.83C6.16 9.89 6.58 10.91 7.33 11.66C8.08 12.41 9.1 12.83 10.16 12.83C11.22 12.83 12.24 12.41 12.99 11.66C13.74 10.91 14.16 9.89 14.16 8.83L14.16 4.83" stroke="#101828" stroke-opacity="1.000000" stroke-width="1.800000" stroke-linejoin="round"/>
	</g>
</svg>
