<svg width="19.000000" height="15.000000" viewBox="0 0 19 15" fill="none" xmlns="http://www.w3.org/2000/svg" xmlns:xlink="http://www.w3.org/1999/xlink">
	<desc>
			Created with Pixso.
	</desc>
	<defs/>
	<path id="Vector" d="M0.42 0.57C0.23 0.57 0.05 0.64 -0.08 0.78C-0.22 0.91 -0.29 1.09 -0.29 1.28L-0.29 12.71C-0.29 12.9 -0.22 13.08 -0.08 13.21C0.05 13.35 0.23 13.42 0.42 13.42L17.57 13.42C17.76 13.42 17.94 13.35 18.07 13.21C18.21 13.08 18.28 12.9 18.28 12.71L18.28 1.28C18.28 1.09 18.21 0.91 18.07 0.78C17.94 0.64 17.76 0.57 17.57 0.57L0.42 0.57Z" stroke="#101828" stroke-opacity="1.000000" stroke-width="1.400000" stroke-linejoin="round"/>
	<path id="Vector" d="M3.28 3.42C3.09 3.42 2.91 3.5 2.78 3.63C2.64 3.77 2.57 3.95 2.57 4.14L2.57 9.85C2.57 10.04 2.64 10.22 2.78 10.36C2.91 10.49 3.09 10.57 3.28 10.57L11.14 10.57C11.33 10.57 11.51 10.49 11.64 10.36C11.78 10.22 11.85 10.04 11.85 9.85L11.85 4.14C11.85 3.95 11.78 3.77 11.64 3.63C11.51 3.5 11.33 3.42 11.14 3.42L3.28 3.42ZM14.71 4.14L15.42 4.14M14.71 7L15.42 7" stroke="#101828" stroke-opacity="1.000000" stroke-width="1.400000" stroke-linejoin="round"/>
</svg>
