<svg width="20.000000" height="20.000000" viewBox="0 0 20 20" fill="none" xmlns="http://www.w3.org/2000/svg" xmlns:xlink="http://www.w3.org/1999/xlink">
	<desc>
			Created with Pixso.
	</desc>
	<defs>
		<clipPath id="clip45_486">
			<rect id="solar:radio-linear" width="20.000000" height="20.000000" fill="white" fill-opacity="0"/>
		</clipPath>
	</defs>
	<rect id="solar:radio-linear" width="20.000000" height="20.000000" fill="#FFFFFF" fill-opacity="0"/>
	<g clip-path="url(#clip45_486)">
		<path id="Vector" d="M2.64 5.97C3.61 5 5.19 5 8.33 5L11.66 5C14.8 5 16.38 5 17.35 5.97C18.33 6.95 18.33 8.52 18.33 11.66C18.33 14.8 18.33 16.38 17.35 17.35C16.38 18.33 14.8 18.33 11.66 18.33L8.33 18.33C5.19 18.33 3.61 18.33 2.64 17.35C1.66 16.38 1.66 14.8 1.66 11.66C1.66 8.52 1.66 6.95 2.64 5.97Z" stroke="#101828" stroke-opacity="1.000000" stroke-width="1.300000"/>
		<path id="Vector" d="M4.65 7.98C4.96 7.67 5.39 7.5 5.83 7.5L14.16 7.5C14.6 7.5 15.03 7.67 15.34 7.98C15.65 8.3 15.83 8.72 15.83 9.16C15.83 9.6 15.65 10.03 15.34 10.34C15.03 10.65 14.6 10.83 14.16 10.83L5.83 10.83C5.39 10.83 4.96 10.65 4.65 10.34C4.34 10.03 4.16 9.6 4.16 9.16C4.16 8.72 4.34 8.3 4.65 7.98ZM7.13 15.05C6.89 15.28 6.58 15.41 6.25 15.41C5.91 15.41 5.6 15.28 5.36 15.05C5.13 14.81 5 14.49 5 14.16C5 13.83 5.13 13.51 5.36 13.28C5.6 13.04 5.91 12.91 6.25 12.91C6.58 12.91 6.89 13.04 7.13 13.28C7.36 13.51 7.5 13.83 7.5 14.16C7.5 14.49 7.36 14.81 7.13 15.05Z" stroke="#101828" stroke-opacity="1.000000" stroke-width="1.300000"/>
		<path id="Vector" d="M12.5 9.58L12.5 10.83M10.83 14.16L15 14.16M5.41 4.99L12.5 1.66" stroke="#101828" stroke-opacity="1.000000" stroke-width="1.300000"/>
	</g>
</svg>
