<svg width="20.000000" height="20.000000" viewBox="0 0 20 20" fill="none" xmlns="http://www.w3.org/2000/svg" xmlns:xlink="http://www.w3.org/1999/xlink">
	<desc>
			Created with Pixso.
	</desc>
	<defs/>
	<path id="Vector" d="M15 2.5C16.21 2.5 17.04 3.52 17.52 4.57C18 5.6 18.29 6.95 18.32 8.41L18.33 8.75L18.33 16.66C18.33 16.77 18.31 16.89 18.26 16.99C18.22 17.09 18.15 17.19 18.07 17.26C17.99 17.34 17.9 17.4 17.79 17.44C17.69 17.48 17.57 17.5 17.46 17.5L17.36 17.48L15 17.09L12.63 17.48C12.53 17.5 12.43 17.5 12.33 17.48L12.23 17.45L10 16.71L7.76 17.45C7.64 17.49 7.52 17.5 7.39 17.49C7.27 17.47 7.15 17.43 7.05 17.37C6.94 17.3 6.86 17.21 6.79 17.11C6.72 17 6.68 16.88 6.67 16.76L6.66 16.66L6.66 14.22C6.22 14.68 5.67 15 5 15C3.78 15 2.95 13.97 2.47 12.92C1.96 11.81 1.66 10.33 1.66 8.75C1.66 7.16 1.96 5.68 2.47 4.57C2.93 3.57 3.71 2.59 4.83 2.5L5 2.5L15 2.5ZM15 4.16L7.31 4.16C7.39 4.29 7.46 4.43 7.52 4.57C8.03 5.68 8.33 7.16 8.33 8.75L8.33 15.51L9.73 15.04C9.9 14.98 10.09 14.98 10.26 15.04L12.56 15.81L14.86 15.42C14.95 15.41 15.04 15.41 15.13 15.42L16.66 15.68L16.66 8.75C16.66 7.34 16.4 6.11 16.01 5.26C15.58 4.34 15.16 4.16 15 4.16ZM5 4.16C4.83 4.16 4.41 4.34 3.98 5.26C3.59 6.11 3.33 7.34 3.33 8.75C3.33 10.15 3.59 11.38 3.98 12.23C4.41 13.15 4.83 13.33 5 13.33C5.16 13.33 5.58 13.15 6.01 12.23C6.4 11.38 6.66 10.15 6.66 8.75C6.66 7.34 6.4 6.11 6.01 5.26C5.58 4.34 5.16 4.16 5 4.16ZM5 7.08C5.46 7.08 5.83 7.82 5.83 8.75C5.83 9.67 5.46 10.41 5 10.41C4.54 10.41 4.16 9.67 4.16 8.75C4.16 7.82 4.54 7.08 5 7.08Z" fill="#101828" fill-opacity="1.000000" fill-rule="nonzero"/>
</svg>
